<?xml version="1.0" standalone="no"?>
<!DOCTYPE svg PUBLIC "-//W3C//DTD SVG 20010904//EN"
 "http://www.w3.org/TR/2001/REC-SVG-20010904/DTD/svg10.dtd">
<svg version="1.0" xmlns="http://www.w3.org/2000/svg"
 width="4838.000000pt" height="2721.000000pt" viewBox="0 0 4838.000000 2721.000000"
 preserveAspectRatio="xMidYMid meet">

<g transform="translate(0.000000,2721.000000) scale(0.100000,-0.100000)"
fill="#000000" stroke="none">
<path d="M10320 27204 c0 -4 22 -75 49 -158 155 -481 280 -1148 321 -1718 13
-187 13 -646 0 -814 -49 -622 -212 -1159 -470 -1543 -199 -295 -374 -472 -650
-656 -403 -269 -908 -427 -1560 -487 -174 -16 -761 -16 -950 0 -575 49 -980
113 -1605 252 -461 102 -713 147 -1105 194 -1238 151 -2322 64 -3120 -249
-472 -185 -880 -472 -1156 -811 l-74 -91 0 -645 0 -646 28 -5 c15 -3 28 -5 28
-4 1 1 25 88 52 193 28 105 67 236 88 290 118 317 308 590 552 795 462 387
1088 598 1987 670 193 16 749 16 975 0 590 -40 1009 -101 1610 -236 1444 -324
2558 -370 3487 -145 614 149 1105 412 1499 805 247 245 388 437 534 726 221
436 344 879 400 1446 30 297 28 834 -4 1173 -51 532 -166 1133 -308 1603 l-20
67 -294 0 c-162 0 -294 -3 -294 -6z"/>
<path d="M39492 27150 c-131 -148 -253 -331 -346 -518 -144 -287 -203 -498
-251 -889 -41 -330 -90 -524 -196 -771 -89 -208 -196 -380 -375 -603 -249
-310 -393 -586 -488 -933 -156 -567 -98 -1161 164 -1701 75 -153 185 -320 336
-510 154 -194 229 -311 320 -498 130 -268 196 -505 234 -831 27 -224 52 -366
91 -501 156 -545 502 -1022 969 -1335 277 -185 552 -300 885 -369 76 -15 109
-20 290 -41 366 -44 608 -114 898 -262 153 -78 270 -155 437 -288 250 -199
390 -288 600 -380 528 -234 1110 -275 1657 -119 327 94 591 236 903 485 187
149 318 233 505 325 273 133 498 197 855 239 346 42 565 99 810 209 164 75
310 162 466 279 l124 93 0 4489 0 4490 -4418 0 -4418 0 -52 -60z"/>
<path d="M24105 16576 c-196 -38 -399 -161 -510 -308 -62 -83 -121 -209 -146
-315 -20 -83 -21 -117 -23 -613 l-1 -525 -38 -110 c-75 -218 -250 -545 -477
-895 -194 -298 -254 -399 -325 -545 -102 -211 -132 -323 -142 -537 l-6 -137
-59 -83 c-169 -240 -145 -222 -354 -273 -146 -35 -235 -75 -263 -115 -37 -52
-41 -88 -41 -357 0 -257 -1 -267 -27 -356 -38 -129 -37 -199 2 -263 48 -77
127 -112 420 -183 132 -33 292 -70 355 -84 63 -14 198 -55 299 -92 200 -72
306 -100 409 -110 204 -20 388 94 487 301 34 71 34 71 92 87 111 31 230 40
453 34 163 -4 238 -10 311 -26 96 -21 269 -75 323 -102 32 -16 34 -17 72 -107
65 -152 242 -239 465 -230 97 4 112 7 180 40 41 20 95 54 121 75 25 21 91 74
145 119 146 120 273 213 526 382 311 210 376 274 377 370 0 58 -36 106 -190
253 -83 79 -163 162 -176 185 -14 23 -37 98 -54 170 -34 155 -40 171 -76 213
-29 35 -94 70 -129 71 -42 1 -44 11 -24 100 28 125 28 385 0 504 -65 273 -188
505 -666 1256 -270 424 -297 481 -315 657 -5 54 -14 247 -20 428 -10 340 -21
440 -61 570 -64 210 -215 393 -396 481 -133 65 -375 97 -518 70z m443 -855
c93 -48 143 -140 150 -271 4 -84 4 -86 -42 -176 -25 -49 -54 -99 -66 -109 -18
-16 -24 -17 -59 -5 -66 21 -69 26 -39 57 85 92 80 240 -11 300 -112 75 -248
-50 -227 -208 l7 -48 -53 18 c-50 17 -53 20 -56 55 -5 58 16 176 42 231 52
114 140 175 254 175 42 0 75 -6 100 -19z m-808 -46 c72 -37 129 -170 130 -297
0 -66 -3 -79 -19 -88 -35 -18 -41 -12 -41 48 -1 167 -146 248 -210 117 -35
-73 -22 -169 32 -231 l31 -35 -21 -22 c-20 -20 -22 -20 -40 -4 -31 28 -80 146
-92 219 -21 135 19 261 94 294 41 18 100 17 136 -1z m391 -401 c79 -24 426
-152 470 -174 53 -28 79 -65 79 -114 0 -76 -17 -115 -67 -149 -26 -18 -92 -66
-148 -108 -190 -144 -263 -182 -383 -199 -77 -11 -186 1 -235 26 -38 20 -117
95 -211 199 l-71 79 77 -42 c201 -110 331 -124 526 -58 93 32 148 61 292 156
148 98 138 89 121 100 -20 12 -36 4 -123 -61 -220 -163 -422 -224 -608 -185
-74 15 -270 104 -325 148 -31 24 -31 40 -1 103 32 69 109 138 242 219 119 72
250 94 365 60z m529 -457 c0 -11 62 -306 75 -359 26 -104 65 -216 122 -350 29
-70 62 -162 74 -204 16 -57 35 -96 76 -153 64 -89 124 -211 182 -370 64 -174
90 -295 103 -478 l12 -163 32 0 c30 0 34 4 63 74 43 102 61 187 61 283 0 191
-67 379 -192 533 -89 110 -87 112 14 10 85 -86 112 -122 150 -196 70 -135 93
-224 92 -364 0 -92 -5 -134 -26 -210 -15 -52 -29 -102 -33 -111 -5 -13 11 -17
103 -27 121 -14 193 -30 266 -62 61 -26 56 -34 -9 -14 -116 34 -412 37 -527 4
-50 -14 -93 -52 -111 -98 -12 -31 -23 -41 -55 -50 -49 -15 -107 -76 -121 -129
-10 -35 -27 -279 -33 -470 l-3 -83 -75 -76 c-134 -135 -259 -218 -410 -269
-260 -88 -604 -83 -861 14 -71 27 -214 112 -214 128 0 6 19 25 42 42 69 50 96
99 96 176 0 102 -22 127 -293 330 -194 146 -357 307 -399 396 -147 314 -67
804 172 1053 63 65 65 59 7 -15 -74 -94 -156 -281 -181 -412 -5 -28 -10 -120
-10 -204 0 -139 3 -159 28 -235 l28 -83 12 115 c18 161 47 291 104 464 55 167
135 342 203 444 25 37 56 95 70 127 13 33 51 119 84 191 34 72 72 165 86 207
26 80 73 288 101 449 13 74 20 96 30 90 7 -4 52 -51 100 -104 107 -119 168
-155 285 -164 146 -12 266 35 465 185 178 133 188 140 203 141 6 0 12 -2 12
-3z m-1981 -2262 c43 -22 113 -96 174 -183 30 -42 171 -246 315 -452 143 -206
282 -400 309 -430 132 -151 161 -209 170 -333 7 -103 -7 -152 -71 -241 -54
-76 -99 -117 -169 -154 -50 -26 -58 -27 -197 -26 -160 0 -153 -2 -514 128 -72
26 -209 64 -315 86 -237 51 -472 112 -536 140 -55 24 -99 61 -121 102 -21 41
-17 105 13 199 25 80 26 97 32 364 8 375 -3 358 272 429 76 19 155 44 176 55
47 23 100 80 139 147 67 118 110 162 182 185 35 11 104 3 141 -16z m2495 -152
c9 -91 42 -209 72 -260 66 -114 197 -130 367 -45 96 48 194 148 266 270 60
103 68 108 159 97 142 -17 180 -59 227 -249 41 -168 70 -222 165 -311 262
-245 290 -298 202 -393 -20 -23 -161 -125 -312 -228 -286 -195 -492 -347 -620
-459 -41 -36 -102 -79 -135 -95 -178 -88 -413 -57 -546 74 -57 56 -79 110 -92
228 -12 106 -6 148 58 448 22 98 27 158 35 410 15 438 31 528 98 565 44 24 49
19 56 -52z"/>
<path d="M23871 15217 c-14 -6 -26 -18 -29 -24 -6 -22 25 -14 55 12 31 27 16
34 -26 12z"/>
<path d="M24060 15221 c0 -12 70 -44 78 -36 10 10 -37 45 -59 45 -10 0 -19 -4
-19 -9z"/>
<path d="M3995 10690 c-264 -41 -504 -116 -724 -226 -178 -88 -311 -175 -501
-325 -239 -190 -392 -284 -610 -377 -241 -103 -447 -155 -759 -192 -388 -46
-613 -110 -904 -257 -139 -70 -361 -214 -445 -288 l-52 -47 0 -4489 0 -4489
4414 0 4414 0 57 62 c134 147 260 336 361 538 143 287 201 505 254 948 36 294
109 549 231 797 83 169 175 310 319 492 196 246 293 402 384 615 88 207 146
415 181 645 21 140 20 499 -1 642 -70 480 -230 835 -564 1256 -188 237 -297
421 -393 660 -91 226 -129 388 -167 705 -43 369 -104 585 -240 865 -290 593
-808 1039 -1438 1238 -160 51 -272 73 -538 107 -269 34 -409 64 -578 121 -292
99 -510 222 -789 445 -378 302 -717 460 -1167 545 -168 32 -572 37 -745 9z"/>
<path d="M48271 7194 c-60 -229 -103 -348 -176 -494 -135 -268 -319 -488 -567
-673 -709 -533 -1931 -720 -3458 -531 -278 34 -628 94 -872 149 -933 210
-1544 296 -2228 311 -1088 25 -1970 -209 -2617 -694 -281 -212 -571 -538 -744
-837 -58 -100 -184 -372 -232 -500 -174 -467 -258 -991 -259 -1615 -1 -468 38
-885 128 -1375 49 -265 139 -647 206 -867 l20 -68 294 0 c162 0 294 3 294 6 0
4 -22 75 -49 158 -133 411 -245 963 -302 1486 -26 244 -37 821 -20 1035 63
774 262 1326 645 1788 373 451 934 742 1664 861 282 47 469 60 837 60 671 0
1220 -70 2140 -274 340 -76 559 -116 825 -154 1226 -174 2318 -124 3135 142
589 193 1061 501 1388 908 l57 71 0 647 c0 551 -2 646 -14 646 -8 0 -21 2 -28
5 -11 4 -27 -41 -67 -191z"/>
</g>
</svg>
